<svg width="248" height="248" viewBox="0 0 248 248" fill="none" xmlns="http://www.w3.org/2000/svg">
<rect x="1" y="1" width="246" height="246" rx="39" fill="#EBC1FF" stroke="black" stroke-width="2"/>
<mask id="path-2-inside-1" fill="white">
<path d="M241 124C241 153.281 230.068 181.497 210.363 203.077C190.657 224.657 163.611 238.033 134.565 240.563C105.518 243.092 76.5833 234.592 53.4731 216.74C30.363 198.889 14.7578 172.984 9.73904 144.14C4.72025 115.297 10.6527 85.6119 26.3649 60.9471C42.0772 36.2823 66.427 18.4307 94.6062 10.9174C122.785 3.40405 152.746 6.77512 178.571 20.3649C204.396 33.9548 224.208 56.7754 234.096 84.3207L124.5 124L241 124Z"/>
</mask>
<path d="M241 124C241 153.281 230.068 181.497 210.363 203.077C190.657 224.657 163.611 238.033 134.565 240.563C105.518 243.092 76.5833 234.592 53.4731 216.74C30.363 198.889 14.7578 172.984 9.73904 144.14C4.72025 115.297 10.6527 85.6119 26.3649 60.9471C42.0772 36.2823 66.427 18.4307 94.6062 10.9174C122.785 3.40405 152.746 6.77512 178.571 20.3649C204.396 33.9548 224.208 56.7754 234.096 84.3207L124.5 124L241 124Z" fill="#00B7DF" stroke="black" stroke-width="2" mask="url(#path-2-inside-1)"/>
<g filter="url(#filter0_d)">
<path d="M176.78 160.48C177.546 161.4 179.31 163.393 182.07 166.46C184.983 169.527 187.283 172.67 188.97 175.89C190.81 178.957 191.73 181.947 191.73 184.86C191.73 188.54 190.35 191.99 187.59 195.21C184.216 199.35 180.076 201.42 175.17 201.42C173.023 201.42 170.646 201.113 168.04 200.5C165.433 199.887 163.746 199.503 162.98 199.35C150.866 196.897 136.76 195.67 120.66 195.67C108.24 195.67 95.0529 196.283 81.0996 197.51C79.8729 197.663 78.1096 197.817 75.8096 197.97C73.5096 198.123 71.4396 198.2 69.5996 198.2C64.0796 198.2 59.6329 197.357 56.2596 195.67C53.0396 193.83 51.4296 190.533 51.4296 185.78C51.4296 183.02 51.9663 180.107 53.0396 177.04C54.1129 173.82 55.7229 169.987 57.8696 165.54L59.9396 160.71C62.2396 155.037 64.7696 150.743 67.5296 147.83C70.2896 144.763 74.1996 143.23 79.2596 143.23C83.3996 143.23 86.6196 144.61 88.9196 147.37C91.3729 149.977 92.5996 153.273 92.5996 157.26C92.5996 160.02 91.9096 162.78 90.5296 165.54C100.19 164.927 111.153 164.62 123.42 164.62C130.626 164.62 136.07 164.697 139.75 164.85C125.643 147.063 115.14 133.647 108.24 124.6L92.3696 104.59C89.9163 101.523 87.8463 99.1467 86.1596 97.46C80.4863 90.8667 76.1929 85.27 73.2796 80.67C70.3663 75.9167 68.9096 71.0867 68.9096 66.18C68.9096 61.58 70.5196 57.9 73.7396 55.14C77.1129 52.2267 81.0229 50.08 85.4696 48.7C90.0696 47.1667 95.8196 45.71 102.72 44.33L112.38 42.26C124.493 39.1933 136.99 36.4333 149.87 33.98C150.943 33.8267 153.09 33.4433 156.31 32.83C161.523 31.45 166.123 30.76 170.11 30.76C175.17 30.76 179.003 32.14 181.61 34.9C184.37 37.8133 185.75 40.8033 185.75 43.87C185.75 46.7833 184.83 49.6967 182.99 52.61C181.303 55.5233 178.543 59.3567 174.71 64.11C170.11 69.63 167.196 73.6933 165.97 76.3C163.976 80.5933 161.83 84.1967 159.53 87.11C157.383 90.0233 154.93 91.48 152.17 91.48C150.176 91.48 148.183 90.7133 146.19 89.18C144.043 87.4933 142.97 85.1933 142.97 82.28C142.97 80.1333 143.43 77.91 144.35 75.61C145.423 73.1567 146.42 70.9333 147.34 68.94C148.413 66.9467 149.103 65.72 149.41 65.26C141.59 66.64 130.013 69.3233 114.68 73.31C112.84 73.9233 109.083 74.92 103.41 76.3L131.01 108.04C154.623 134.873 169.88 152.353 176.78 160.48Z" fill="#F2F2F2"/>
<path d="M176.78 160.48L178.316 159.2L178.31 159.193L178.304 159.186L176.78 160.48ZM182.07 166.46L180.583 167.798L180.601 167.818L180.62 167.837L182.07 166.46ZM188.97 175.89L187.198 176.818L187.225 176.869L187.255 176.919L188.97 175.89ZM187.59 195.21L186.071 193.908L186.055 193.927L186.039 193.947L187.59 195.21ZM168.04 200.5L167.582 202.447L167.582 202.447L168.04 200.5ZM162.98 199.35L162.583 201.31L162.587 201.311L162.98 199.35ZM81.0996 197.51L80.9245 195.518L80.8879 195.521L80.8515 195.525L81.0996 197.51ZM75.8096 197.97L75.6766 195.974L75.6766 195.974L75.8096 197.97ZM56.2596 195.67L55.2673 197.406L55.3155 197.434L55.3652 197.459L56.2596 195.67ZM53.0396 177.04L54.9273 177.701L54.9323 177.687L54.937 177.672L53.0396 177.04ZM57.8696 165.54L59.6707 166.409L59.6902 166.369L59.7079 166.328L57.8696 165.54ZM59.9396 160.71L61.7779 161.498L61.7857 161.48L61.7931 161.461L59.9396 160.71ZM67.5296 147.83L68.9815 149.205L68.9991 149.187L69.0162 149.168L67.5296 147.83ZM88.9196 147.37L87.3832 148.65L87.4218 148.697L87.4632 148.741L88.9196 147.37ZM90.5296 165.54L88.7408 164.646L87.1854 167.756L90.6563 167.536L90.5296 165.54ZM139.75 164.85L139.666 166.848L144.031 167.03L141.317 163.607L139.75 164.85ZM108.24 124.6L109.83 123.387L109.818 123.372L109.807 123.357L108.24 124.6ZM92.3696 104.59L93.9366 103.347L93.9313 103.341L92.3696 104.59ZM86.1596 97.46L84.6436 98.7645L84.6924 98.8212L84.7454 98.8742L86.1596 97.46ZM73.2796 80.67L71.5744 81.7151L71.5821 81.7277L71.59 81.7401L73.2796 80.67ZM73.7396 55.14L75.0412 56.6585L75.0468 56.6536L73.7396 55.14ZM85.4696 48.7L86.0624 50.6101L86.0823 50.6039L86.1021 50.5974L85.4696 48.7ZM102.72 44.33L103.112 46.2912L103.125 46.2885L103.139 46.2856L102.72 44.33ZM112.38 42.26L112.799 44.2156L112.835 44.2079L112.87 44.1988L112.38 42.26ZM149.87 33.98L149.587 32.0001L149.541 32.0066L149.495 32.0153L149.87 33.98ZM156.31 32.83L156.684 34.7947L156.753 34.7815L156.821 34.7634L156.31 32.83ZM181.61 34.9L180.156 36.2732L180.158 36.2755L181.61 34.9ZM182.99 52.61L181.299 51.542L181.278 51.5746L181.259 51.6079L182.99 52.61ZM174.71 64.11L176.246 65.3904L176.256 65.378L176.266 65.3655L174.71 64.11ZM165.97 76.3L164.16 75.4484L164.156 75.4578L165.97 76.3ZM159.53 87.11L157.96 85.8707L157.939 85.8968L157.92 85.9236L159.53 87.11ZM146.19 89.18L144.954 90.7526L144.962 90.759L144.97 90.7652L146.19 89.18ZM144.35 75.61L142.517 74.8083L142.505 74.8376L142.493 74.8672L144.35 75.61ZM147.34 68.94L145.579 67.9918L145.549 68.046L145.524 68.1019L147.34 68.94ZM149.41 65.26L151.074 66.3694L153.668 62.4776L149.062 63.2904L149.41 65.26ZM114.68 73.31L114.176 71.3743L114.111 71.3913L114.047 71.4126L114.68 73.31ZM103.41 76.3L102.937 74.3567L99.7446 75.1332L101.9 77.6123L103.41 76.3ZM131.01 108.04L129.5 109.352L129.508 109.361L131.01 108.04ZM175.243 161.76C176.039 162.715 177.83 164.739 180.583 167.798L183.556 165.122C180.789 162.048 179.054 160.085 178.316 159.2L175.243 161.76ZM180.62 167.837C183.426 170.791 185.61 173.786 187.198 176.818L190.741 174.962C188.956 171.554 186.54 168.262 183.52 165.082L180.62 167.837ZM187.255 176.919C188.95 179.745 189.73 182.383 189.73 184.86H193.73C193.73 181.51 192.669 178.168 190.685 174.861L187.255 176.919ZM189.73 184.86C189.73 187.991 188.571 190.992 186.071 193.908L189.108 196.512C192.129 192.988 193.73 189.089 193.73 184.86H189.73ZM186.039 193.947C183.007 197.668 179.417 199.42 175.17 199.42V203.42C180.736 203.42 185.425 201.032 189.14 196.473L186.039 193.947ZM175.17 199.42C173.21 199.42 170.989 199.139 168.498 198.553L167.582 202.447C170.303 203.087 172.836 203.42 175.17 203.42V199.42ZM168.498 198.553C165.9 197.942 164.178 197.55 163.372 197.389L162.587 201.311C163.314 201.457 164.966 201.831 167.582 202.447L168.498 198.553ZM163.377 197.39C151.1 194.903 136.855 193.67 120.66 193.67V197.67C136.664 197.67 150.632 198.89 162.583 201.31L163.377 197.39ZM120.66 193.67C108.174 193.67 94.9288 194.287 80.9245 195.518L81.2748 199.502C95.1771 198.28 108.305 197.67 120.66 197.67V193.67ZM80.8515 195.525C79.6827 195.672 77.9649 195.822 75.6766 195.974L75.9426 199.966C78.2544 199.811 80.0632 199.655 81.3477 199.495L80.8515 195.525ZM75.6766 195.974C73.4104 196.126 71.3858 196.2 69.5996 196.2V200.2C71.4934 200.2 73.6089 200.121 75.9426 199.966L75.6766 195.974ZM69.5996 196.2C64.2571 196.2 60.1511 195.38 57.154 193.881L55.3652 197.459C59.1148 199.334 63.9022 200.2 69.5996 200.2V196.2ZM57.2519 193.934C54.8345 192.552 53.4296 190.05 53.4296 185.78H49.4296C49.4296 191.017 51.2447 195.108 55.2673 197.406L57.2519 193.934ZM53.4296 185.78C53.4296 183.281 53.9155 180.592 54.9273 177.701L51.1519 176.379C50.0171 179.622 49.4296 182.759 49.4296 185.78H53.4296ZM54.937 177.672C55.9742 174.561 57.5461 170.811 59.6707 166.409L56.0685 164.671C53.8998 169.163 52.2517 173.079 51.1422 176.408L54.937 177.672ZM59.7079 166.328L61.7779 161.498L58.1013 159.922L56.0313 164.752L59.7079 166.328ZM61.7931 161.461C64.0435 155.91 66.4588 151.868 68.9815 149.205L66.0777 146.455C63.0804 149.618 60.4357 154.163 58.0861 159.959L61.7931 161.461ZM69.0162 149.168C71.313 146.616 74.6278 145.23 79.2596 145.23V141.23C73.7714 141.23 69.2662 142.911 66.043 146.492L69.0162 149.168ZM79.2596 145.23C82.9071 145.23 85.5234 146.419 87.3832 148.65L90.4561 146.09C87.7158 142.801 83.8922 141.23 79.2596 141.23V145.23ZM87.4632 148.741C89.5266 150.933 90.5996 153.72 90.5996 157.26H94.5996C94.5996 152.827 93.2193 149.02 90.376 145.999L87.4632 148.741ZM90.5996 157.26C90.5996 159.674 89.9985 162.13 88.7408 164.646L92.3185 166.434C93.8208 163.43 94.5996 160.366 94.5996 157.26H90.5996ZM90.6563 167.536C100.265 166.926 111.185 166.62 123.42 166.62V162.62C111.121 162.62 100.114 162.927 90.4029 163.544L90.6563 167.536ZM123.42 166.62C130.619 166.62 136.029 166.697 139.666 166.848L139.833 162.852C136.11 162.697 130.633 162.62 123.42 162.62V166.62ZM141.317 163.607C127.212 145.823 116.718 132.418 109.83 123.387L106.649 125.813C113.561 134.875 124.074 148.304 138.183 166.093L141.317 163.607ZM109.807 123.357L93.9366 103.347L90.8026 105.833L106.673 125.843L109.807 123.357ZM93.9313 103.341C91.4572 100.248 89.3351 97.8071 87.5738 96.0458L84.7454 98.8742C86.3575 100.486 88.3753 102.799 90.8079 105.839L93.9313 103.341ZM87.6756 96.1555C82.0331 89.598 77.8092 84.084 74.9692 79.5999L71.59 81.7401C74.5767 86.456 78.9395 92.1354 84.6436 98.7645L87.6756 96.1555ZM74.9848 79.6249C72.2374 75.1422 70.9096 70.6695 70.9096 66.18H66.9096C66.9096 71.5038 68.4952 76.6911 71.5744 81.7151L74.9848 79.6249ZM70.9096 66.18C70.9096 62.1079 72.3053 59.0036 75.0412 56.6585L72.438 53.6215C68.734 56.7964 66.9096 61.0521 66.9096 66.18H70.9096ZM75.0468 56.6536C78.2026 53.9282 81.8667 51.9122 86.0624 50.6101L84.8768 46.7899C80.1792 48.2477 76.0233 50.5251 72.4324 53.6263L75.0468 56.6536ZM86.1021 50.5974C90.597 49.099 96.2604 47.6614 103.112 46.2912L102.327 42.3688C95.3788 43.7585 89.5422 45.2343 84.8372 46.8026L86.1021 50.5974ZM103.139 46.2856L112.799 44.2156L111.961 40.3044L102.301 42.3744L103.139 46.2856ZM112.87 44.1988C124.943 41.1424 137.401 38.3909 150.244 35.9447L149.495 32.0153C136.578 34.4757 124.043 37.2443 111.889 40.3212L112.87 44.1988ZM150.152 35.9599C151.279 35.7989 153.472 35.4065 156.684 34.7947L155.935 30.8653C152.708 31.4801 150.607 31.8544 149.587 32.0001L150.152 35.9599ZM156.821 34.7634C161.922 33.4132 166.344 32.76 170.11 32.76V28.76C165.902 28.76 161.124 29.4868 155.798 30.8966L156.821 34.7634ZM170.11 32.76C174.81 32.76 178.04 34.0336 180.156 36.2732L183.064 33.5267C179.965 30.2463 175.529 28.76 170.11 28.76V32.76ZM180.158 36.2755C182.678 38.9356 183.75 41.4576 183.75 43.87H187.75C187.75 40.1491 186.061 36.6911 183.062 33.5245L180.158 36.2755ZM183.75 43.87C183.75 46.3409 182.974 48.8891 181.299 51.542L184.681 53.678C186.685 50.5042 187.75 47.2258 187.75 43.87H183.75ZM181.259 51.6079C179.649 54.3883 176.965 58.1279 173.153 62.8545L176.266 65.3655C180.121 60.5854 182.957 56.6584 184.72 53.6121L181.259 51.6079ZM173.173 62.8296C168.579 68.3432 165.508 72.5831 164.16 75.4484L167.779 77.1516C168.884 74.8035 171.641 70.9168 176.246 65.3904L173.173 62.8296ZM164.156 75.4578C162.211 79.6463 160.141 83.1079 157.96 85.8707L161.099 88.3493C163.518 85.2855 165.742 81.5403 167.784 77.1422L164.156 75.4578ZM157.92 85.9236C156.021 88.4996 154.105 89.48 152.17 89.48V93.48C155.754 93.48 158.744 91.5471 161.14 88.2964L157.92 85.9236ZM152.17 89.48C150.722 89.48 149.146 88.9306 147.409 87.5947L144.97 90.7652C147.22 92.4961 149.631 93.48 152.17 93.48V89.48ZM147.425 87.6074C145.797 86.3283 144.97 84.6272 144.97 82.28H140.97C140.97 85.7595 142.289 88.6583 144.954 90.7526L147.425 87.6074ZM144.97 82.28C144.97 80.4238 145.367 78.4525 146.207 76.3528L142.493 74.8672C141.493 77.3675 140.97 79.8428 140.97 82.28H144.97ZM146.182 76.4116C147.251 73.968 148.242 71.7571 149.156 69.7781L145.524 68.1019C144.597 70.1096 143.595 72.3453 142.517 74.8083L146.182 76.4116ZM149.101 69.8882C150.191 67.8625 150.831 66.733 151.074 66.3694L147.746 64.1506C147.375 64.707 146.635 66.0308 145.579 67.9918L149.101 69.8882ZM149.062 63.2904C141.161 64.6848 129.521 67.3847 114.176 71.3743L115.183 75.2456C130.505 71.262 142.019 68.5952 149.757 67.2296L149.062 63.2904ZM114.047 71.4126C112.299 71.9952 108.624 72.9733 102.937 74.3567L103.882 78.2433C109.542 76.8667 113.38 75.8514 115.312 75.2074L114.047 71.4126ZM101.9 77.6123L129.5 109.352L132.519 106.728L104.919 74.9876L101.9 77.6123ZM129.508 109.361C153.124 136.198 168.369 153.664 175.255 161.774L178.304 159.186C171.391 151.043 156.121 133.549 132.511 106.719L129.508 109.361Z" fill="#030080"/>
</g>
<defs>
<filter id="filter0_d" x="45.4296" y="28.76" width="152.3" height="182.66" filterUnits="userSpaceOnUse" color-interpolation-filters="sRGB">
<feFlood flood-opacity="0" result="BackgroundImageFix"/>
<feColorMatrix in="SourceAlpha" type="matrix" values="0 0 0 0 0 0 0 0 0 0 0 0 0 0 0 0 0 0 127 0"/>
<feOffset dy="4"/>
<feGaussianBlur stdDeviation="2"/>
<feColorMatrix type="matrix" values="0 0 0 0 0 0 0 0 0 0 0 0 0 0 0 0 0 0 0.25 0"/>
<feBlend mode="normal" in2="BackgroundImageFix" result="effect1_dropShadow"/>
<feBlend mode="normal" in="SourceGraphic" in2="effect1_dropShadow" result="shape"/>
</filter>
</defs>
</svg>